<mxfile host="app.diagrams.net" modified="2023-08-27T03:17:38.918Z" agent="Mozilla/5.0 (Windows NT 10.0; Win64; x64) AppleWebKit/537.36 (KHTML, like Gecko) Chrome/114.0.0.0 Safari/537.36" etag="_5bLWDdkHi13QIj_OWrc" version="21.6.9" type="github">
  <diagram name="페이지-1" id="_WbU3tiYyOg9ZHtQQ9FB">
    <mxGraphModel dx="663" dy="747" grid="1" gridSize="10" guides="1" tooltips="1" connect="1" arrows="1" fold="1" page="1" pageScale="1" pageWidth="827" pageHeight="1169" math="0" shadow="0">
      <root>
        <mxCell id="0" />
        <mxCell id="1" parent="0" />
        <mxCell id="K8At-hvaZBKUtDex66WP-21" style="edgeStyle=orthogonalEdgeStyle;rounded=0;orthogonalLoop=1;jettySize=auto;html=1;exitX=0.5;exitY=0.5;exitDx=0;exitDy=0;exitPerimeter=0;sketch=1;curveFitting=1;jiggle=2;labelBackgroundColor=none;fontColor=default;" edge="1" parent="1" source="K8At-hvaZBKUtDex66WP-1" target="K8At-hvaZBKUtDex66WP-2">
          <mxGeometry relative="1" as="geometry" />
        </mxCell>
        <mxCell id="K8At-hvaZBKUtDex66WP-25" style="edgeStyle=orthogonalEdgeStyle;rounded=1;orthogonalLoop=1;jettySize=auto;html=1;exitX=0.5;exitY=0.5;exitDx=0;exitDy=0;exitPerimeter=0;entryX=0;entryY=0.5;entryDx=0;entryDy=0;" edge="1" parent="1" source="K8At-hvaZBKUtDex66WP-1" target="K8At-hvaZBKUtDex66WP-5">
          <mxGeometry relative="1" as="geometry" />
        </mxCell>
        <mxCell id="K8At-hvaZBKUtDex66WP-1" value="Actor" style="shape=umlActor;verticalLabelPosition=bottom;verticalAlign=top;html=1;sketch=1;curveFitting=1;jiggle=2;labelBackgroundColor=none;rounded=0;" vertex="1" parent="1">
          <mxGeometry x="110" y="210" width="30" height="60" as="geometry" />
        </mxCell>
        <mxCell id="K8At-hvaZBKUtDex66WP-2" value="회원가입" style="rounded=0;whiteSpace=wrap;html=1;arcSize=40;sketch=1;curveFitting=1;jiggle=2;labelBackgroundColor=none;" vertex="1" parent="1">
          <mxGeometry x="200" y="220" width="120" height="40" as="geometry" />
        </mxCell>
        <mxCell id="K8At-hvaZBKUtDex66WP-4" value="게시판 서비스" style="shape=umlFrame;whiteSpace=wrap;html=1;pointerEvents=0;sketch=1;curveFitting=1;jiggle=2;labelBackgroundColor=none;rounded=0;" vertex="1" parent="1">
          <mxGeometry x="170" y="170" width="600" height="320" as="geometry" />
        </mxCell>
        <mxCell id="K8At-hvaZBKUtDex66WP-5" value="게시판(리스트) 보기" style="rounded=0;whiteSpace=wrap;html=1;arcSize=40;sketch=1;curveFitting=1;jiggle=2;labelBackgroundColor=none;" vertex="1" parent="1">
          <mxGeometry x="200" y="290" width="120" height="40" as="geometry" />
        </mxCell>
        <mxCell id="K8At-hvaZBKUtDex66WP-6" value="게시글(단건) 보기" style="rounded=0;whiteSpace=wrap;html=1;arcSize=40;sketch=1;curveFitting=1;jiggle=2;labelBackgroundColor=none;" vertex="1" parent="1">
          <mxGeometry x="200" y="360" width="120" height="40" as="geometry" />
        </mxCell>
        <mxCell id="K8At-hvaZBKUtDex66WP-20" style="edgeStyle=orthogonalEdgeStyle;rounded=0;orthogonalLoop=1;jettySize=auto;html=1;sketch=1;curveFitting=1;jiggle=2;labelBackgroundColor=none;fontColor=default;" edge="1" parent="1" source="K8At-hvaZBKUtDex66WP-7" target="K8At-hvaZBKUtDex66WP-8">
          <mxGeometry relative="1" as="geometry" />
        </mxCell>
        <mxCell id="K8At-hvaZBKUtDex66WP-7" value="로그인" style="rounded=0;whiteSpace=wrap;html=1;arcSize=40;sketch=1;curveFitting=1;jiggle=2;labelBackgroundColor=none;" vertex="1" parent="1">
          <mxGeometry x="370" y="220" width="90" height="40" as="geometry" />
        </mxCell>
        <mxCell id="K8At-hvaZBKUtDex66WP-8" value="인증" style="rounded=0;whiteSpace=wrap;html=1;arcSize=40;sketch=1;curveFitting=1;jiggle=2;labelBackgroundColor=none;" vertex="1" parent="1">
          <mxGeometry x="530" y="220" width="120" height="40" as="geometry" />
        </mxCell>
        <mxCell id="K8At-hvaZBKUtDex66WP-9" value="로그인 실패" style="rounded=0;whiteSpace=wrap;html=1;arcSize=40;sketch=1;curveFitting=1;jiggle=2;labelBackgroundColor=none;" vertex="1" parent="1">
          <mxGeometry x="530" y="300" width="120" height="40" as="geometry" />
        </mxCell>
        <mxCell id="K8At-hvaZBKUtDex66WP-10" value="게시판 정렬/ 검색" style="rounded=0;whiteSpace=wrap;html=1;arcSize=40;sketch=1;curveFitting=1;jiggle=2;labelBackgroundColor=none;" vertex="1" parent="1">
          <mxGeometry x="354" y="290" width="120" height="40" as="geometry" />
        </mxCell>
        <mxCell id="K8At-hvaZBKUtDex66WP-11" value="게시글 생성/수정/삭제" style="rounded=0;whiteSpace=wrap;html=1;arcSize=40;sketch=1;curveFitting=1;jiggle=2;labelBackgroundColor=none;" vertex="1" parent="1">
          <mxGeometry x="354" y="360" width="120" height="40" as="geometry" />
        </mxCell>
        <mxCell id="K8At-hvaZBKUtDex66WP-12" value="댓글 생성/수정/삭제" style="rounded=0;whiteSpace=wrap;html=1;arcSize=40;sketch=1;curveFitting=1;jiggle=2;labelBackgroundColor=none;" vertex="1" parent="1">
          <mxGeometry x="354" y="410" width="120" height="40" as="geometry" />
        </mxCell>
        <mxCell id="K8At-hvaZBKUtDex66WP-14" value="" style="edgeStyle=orthogonalEdgeStyle;html=1;verticalAlign=bottom;endArrow=open;endSize=8;rounded=0;entryX=0;entryY=0.25;entryDx=0;entryDy=0;exitX=1;exitY=0.5;exitDx=0;exitDy=0;sketch=1;curveFitting=1;jiggle=2;labelBackgroundColor=none;fontColor=default;" edge="1" source="K8At-hvaZBKUtDex66WP-6" parent="1" target="K8At-hvaZBKUtDex66WP-12">
          <mxGeometry relative="1" as="geometry">
            <mxPoint x="320" y="430" as="targetPoint" />
            <mxPoint x="320" y="360" as="sourcePoint" />
          </mxGeometry>
        </mxCell>
        <mxCell id="K8At-hvaZBKUtDex66WP-16" value="" style="line;strokeWidth=1;fillColor=none;align=left;verticalAlign=middle;spacingTop=-1;spacingLeft=3;spacingRight=3;rotatable=0;labelPosition=right;points=[];portConstraint=eastwest;sketch=1;curveFitting=1;jiggle=2;labelBackgroundColor=none;rounded=0;" vertex="1" parent="1">
          <mxGeometry x="300" y="380" width="40" height="8" as="geometry" />
        </mxCell>
        <mxCell id="K8At-hvaZBKUtDex66WP-17" value="" style="line;strokeWidth=1;fillColor=none;align=left;verticalAlign=middle;spacingTop=-1;spacingLeft=3;spacingRight=3;rotatable=0;labelPosition=right;points=[];portConstraint=eastwest;sketch=1;curveFitting=1;jiggle=2;labelBackgroundColor=none;rounded=0;" vertex="1" parent="1">
          <mxGeometry x="300" y="380" width="40" height="8" as="geometry" />
        </mxCell>
        <mxCell id="K8At-hvaZBKUtDex66WP-18" value="" style="line;strokeWidth=1;fillColor=none;align=left;verticalAlign=middle;spacingTop=-1;spacingLeft=3;spacingRight=3;rotatable=0;labelPosition=right;points=[];portConstraint=eastwest;sketch=1;curveFitting=1;jiggle=2;labelBackgroundColor=none;rounded=0;" vertex="1" parent="1">
          <mxGeometry x="300" y="380" width="40" height="8" as="geometry" />
        </mxCell>
      </root>
    </mxGraphModel>
  </diagram>
</mxfile>
